<svg width="128" height="128" viewBox="0 0 128 128" fill="none" xmlns="http://www.w3.org/2000/svg">
<g clip-path="url(#clip0_1991_2)">
<path d="M104.861 31.2173V28.352C104.861 25.4376 104.388 23.5767 104.388 23.5767L69.961 4.90835C67.2625 3.45112 63.9296 3.45112 61.231 4.90835L26.8949 23.9508C26.8949 23.9508 26.3311 25.4277 26.3311 28.352V61.0905L44.8987 59.7317C44.8987 62.6462 38.8975 75.2788 41.596 76.7459L61.231 87.3994C63.9296 88.8567 67.2625 88.8567 69.961 87.3994L100.491 71.0351C103.189 69.5779 104.851 66.88 104.861 63.9656V31.2173Z" fill="#FE5B71"/>
<path d="M108.969 35.2936V64.7237C125.432 71.4388 108.285 83.8056 108.285 83.8056C96.4431 89.7428 83.5847 98.496 52.9541 84.741C51.4538 84.0616 38.4444 77.6222 36.7427 77.3859L28.4355 102.523C48.6546 118.523 71.6325 121.634 90.9957 118.543C108.546 115.737 119.25 105.3 123.368 95.8573C124.818 92.5194 125.442 89.5656 125.442 89.5656L128.01 56.6203C126.147 48.5564 118.535 41.152 108.989 35.3034L108.969 35.2936Z" fill="#5DD3F6"/>
<path d="M31.2348 97.9348C28.7242 106.33 27.0091 110.85 26.0894 111.493C26.0894 111.493 6.39403 72.0788 4.74268 69.568L42.019 65.0585C40.5086 68.5145 37.6489 72.4037 36.5715 81.0092" fill="#5DD3F6"/>
<path d="M26.1699 114.466C25.2737 114.466 24.3675 114.082 23.7835 113.403C20.8735 110.065 14.4191 98.2203 9.31402 87.9705C-1.81248 65.6295 -0.553822 64.4382 1.02705 62.9317C1.75203 62.2523 3.25234 60.8345 22.2328 58.304C41.2335 55.7735 42.6935 56.6892 43.5695 57.2308C45.7747 58.5994 45.5028 59.7514 42.8748 70.7397C42.2907 73.1914 41.5557 76.2339 41.4953 76.8935C41.455 78.528 40.0956 79.7785 38.3939 79.7292C36.7225 79.6899 35.4135 78.2917 35.4537 76.6572C35.4739 75.7711 35.8666 74.0578 36.9843 69.3908C37.4575 67.4018 38.1321 64.5662 38.5752 62.4985C31.2649 62.8332 12.4758 65.4129 6.44429 66.9489C8.63938 73.5065 19.0711 94.8332 25.2435 104.965C25.7369 103.163 26.2706 101.105 26.7338 99.2246C27.1164 97.6394 28.7577 96.6548 30.3788 97.0388C32 97.4228 33.0069 99.008 32.6142 100.603C29.3921 113.777 28.7073 113.945 26.8647 114.378C26.6432 114.427 26.4015 114.457 26.18 114.457L26.1699 114.466Z" fill="#19124F"/>
<path d="M65.6011 49.5607L26.7741 28.5883C25.3141 27.8007 24.7804 25.9988 25.5859 24.5711C26.3915 23.1434 28.2341 22.6216 29.6942 23.4093L65.591 42.8062L101.478 23.3699C102.938 22.5822 104.77 23.0942 105.586 24.5219C106.402 25.9496 105.868 27.7514 104.408 28.5391L65.6011 49.5607Z" fill="#19124F"/>
<path d="M65.5908 90.1662C63.9193 90.1662 62.5701 88.8468 62.5701 87.2124V46.1835C62.5701 44.549 63.9193 43.2296 65.5908 43.2296C67.2623 43.2296 68.6116 44.549 68.6116 46.1835V87.2124C68.6116 88.8468 67.2623 90.1662 65.5908 90.1662Z" fill="#19124F"/>
<path d="M79.0737 92.6966C64.4935 92.6966 49.9535 88.2757 37.518 79.9754C36.1385 79.0597 35.7861 77.2185 36.7226 75.8696C37.659 74.5206 39.5419 74.176 40.9214 75.0917C70.102 94.5773 104.398 86.8677 116.139 72.7582C120.831 67.1163 122.925 58.8948 121.485 51.8056C120.076 44.8837 115.434 39.173 108.073 35.3034C106.603 34.5256 106.059 32.7434 106.845 31.3059C107.64 29.8683 109.463 29.3268 110.933 30.1047C122.301 36.0911 126.167 44.5785 127.406 50.6536C129.218 59.5348 126.691 69.4302 120.821 76.4899C113.702 85.0462 100.602 90.9834 85.7798 92.3816C83.5445 92.5883 81.299 92.6966 79.0536 92.6966H79.0737Z" fill="#19124F"/>
</g>
<defs>
<clipPath id="clip0_1991_2">
<rect width="128" height="128" fill="white"/>
</clipPath>
</defs>
</svg>
